<?xml version="1.0" standalone="no"?>
<!DOCTYPE svg PUBLIC "-//W3C//DTD SVG 20010904//EN"
 "http://www.w3.org/TR/2001/REC-SVG-20010904/DTD/svg10.dtd">
<svg version="1.0" xmlns="http://www.w3.org/2000/svg"
 width="1182.000000pt" height="1182.000000pt" viewBox="0 0 1182.000000 1182.000000"
 preserveAspectRatio="xMidYMid meet">

<g transform="translate(0.000000,1182.000000) scale(0.100000,-0.100000)"
fill="#000000" stroke="none">
<path d="M10 5915 l0 -5905 5905 0 5905 0 -2 5902 -3 5903 -5902 3 -5903 2 0
-5905z m6304 2693 c102 -238 707 -1643 1344 -3123 l1158 -2690 -2900 -3
c-1594 -1 -2901 0 -2903 2 -3 2 602 1394 1343 3093 741 1698 1353 3103 1361
3121 l13 32 199 0 198 0 187 -432z"/>
<path d="M4771 5489 c-524 -1205 -951 -2193 -948 -2195 2 -2 839 -3 1859 -2
l1856 3 -902 2192 c-495 1206 -903 2193 -906 2193 -4 0 -435 -986 -959 -2191z"/>
</g>
</svg>
