<svg width="74" height="10" viewBox="0 0 74 10" fill="none" xmlns="http://www.w3.org/2000/svg">
<path d="M5 0L6.12257 3.45492H9.75528L6.81636 5.59017L7.93893 9.04508L5 6.90983L2.06107 9.04508L3.18364 5.59017L0.244718 3.45492H3.87743L5 0Z" fill="#C4C4C4"/>
<path d="M21 0L22.1226 3.45492H25.7553L22.8164 5.59017L23.9389 9.04508L21 6.90983L18.0611 9.04508L19.1836 5.59017L16.2447 3.45492H19.8774L21 0Z" fill="#C4C4C4"/>
<path d="M37 0L38.1226 3.45492H41.7553L38.8164 5.59017L39.9389 9.04508L37 6.90983L34.0611 9.04508L35.1836 5.59017L32.2447 3.45492H35.8774L37 0Z" fill="#C4C4C4"/>
<path d="M53 0L54.1226 3.45492H57.7553L54.8164 5.59017L55.9389 9.04508L53 6.90983L50.0611 9.04508L51.1836 5.59017L48.2447 3.45492H51.8774L53 0Z" fill="#C4C4C4"/>
<path d="M69 0L70.1226 3.45492H73.7553L70.8164 5.59017L71.9389 9.04508L69 6.90983L66.0611 9.04508L67.1836 5.59017L64.2447 3.45492H67.8774L69 0Z" fill="#C4C4C4"/>
</svg>
