<svg width="442" height="78" viewBox="0 0 442 78" fill="none" xmlns="http://www.w3.org/2000/svg">
<path d="M397.813 0.197323L360.977 77.9227H372.355L379.227 62.94H423.157L429.917 77.9227H441.632L405.135 0.197323H397.813ZM383.732 53.3653L401.529 14.8413L418.877 53.3653H383.732Z" fill="#231F20"/>
<path d="M344.465 10.1093V0.197323H270.796V10.1093H302.449V77.9227H312.812V10.1093H344.465" fill="#231F20"/>
<path d="M260.451 77.9227V68.0093H211.449V0.197323H201.085V77.9227H260.451" fill="#231F20"/>
<path d="M162.384 77.9227V68.0093H113.382V43.6787H161.144V33.7653H113.382V10.1093H162.271V0.197323H103.019V77.9227H162.384" fill="#231F20"/>
<path d="M33.9614 0.197339L0.0551758 77.924H72.374L38.9177 0.197339H33.9614ZM10.0807 71.728L33.9437 16.8627L56.5177 71.728H10.0807Z" fill="#231F20"/>
</svg>
