<svg width="2614" height="516" viewBox="0 0 2614 516" fill="none" xmlns="http://www.w3.org/2000/svg">
<path d="M39.9631 485.019L232.679 59.1297H235.622L426.132 485.019H39.9631ZM225.324 0.284408L0.977783 485.019V515.178H484.976V485.019L260.631 0.284408H225.324Z" fill="black"/>
<path d="M2225.73 327.609L2347.41 59.1302H2350.36L2470.74 327.609H2225.73ZM2375.37 0.28478H2340.06L2101.74 515.177H2140.72L2212.07 357.767H2484.26L2554.84 515.177H2613.69L2375.37 0.28478Z" fill="black"/>
<path d="M2152.49 0.28478H1748.67V33.3848H1926.67V515.177H1974.49V33.3848H2152.49V0.28478Z" fill="black"/>
<path d="M567.36 515.177H859.377V482.077H615.172V268.029H844.666V234.928H615.172V33.3853H859.377V0.285268H567.36V515.177Z" fill="black"/>
<path d="M1633.92 482.812H1523.59V242.284H1633.92C1717.78 242.284 1758.23 293.773 1758.23 362.916C1758.23 432.795 1717.78 482.812 1633.92 482.812ZM1637.6 210.655H1523.59V0.28392H1475.78V515.177H1637.6C1738.37 515.177 1803.1 449.712 1803.1 362.916C1803.1 276.12 1738.37 210.655 1637.6 210.655" fill="black"/>
<path d="M1133.74 0.284536L895.42 515.177H934.404L1141.1 59.1299H1144.04L1348.52 515.177H1407.37L1169.05 0.284536H1133.74Z" fill="black"/>
</svg>
