<svg width="2613" height="515" viewBox="0 0 2613 515" fill="none" xmlns="http://www.w3.org/2000/svg">
<path d="M38.9853 484.735L231.701 58.8458H234.644L425.155 484.735H38.9853ZM224.347 0.000472936L0 484.735V514.894H483.999V484.735L259.653 0.000472936H224.347Z" fill="white"/>
<path d="M2224.76 327.325L2346.44 58.8462H2349.38L2469.76 327.325H2224.76ZM2374.39 0.000844492H2339.08L2100.76 514.893H2139.74L2211.09 357.484H2483.28L2553.86 514.893H2612.71L2374.39 0.000844492Z" fill="white"/>
<path d="M2151.51 0.000600351H1747.69V33.1006H1925.7V514.893H1973.51V33.1006H2151.51V0.000600351Z" fill="white"/>
<path d="M566.382 514.893H858.399V481.793H614.194V267.745H843.689V234.644H614.194V33.1013H858.399V0.00133277H566.382V514.893Z" fill="white"/>
<path d="M1632.94 482.528H1522.61V242H1632.94C1716.8 242 1757.25 293.489 1757.25 362.632C1757.25 432.511 1716.8 482.528 1632.94 482.528ZM1636.62 210.371H1522.61V-1.5345e-05H1474.8V514.893H1636.62C1737.39 514.893 1802.12 449.428 1802.12 362.632C1802.12 275.836 1737.39 210.371 1636.62 210.371" fill="white"/>
<path d="M1132.76 0.000600351L894.442 514.893H933.426L1140.12 58.8459H1143.06L1347.55 514.893H1406.39L1168.07 0.000600351H1132.76Z" fill="white"/>
</svg>
