<svg width="443" height="78" viewBox="0 0 443 78" fill="none" xmlns="http://www.w3.org/2000/svg">
<g clip-path="url(#clip0)">
<path d="M399.147 0.197323L362.311 77.9227H373.688L380.56 62.94H424.491L431.251 77.9227H442.965L406.468 0.197323H399.147ZM385.065 53.3653L402.863 14.8413L420.211 53.3653H385.065Z" fill="white"/>
<path d="M399.147 0.197323L362.311 77.9227H373.688L380.56 62.94H424.491L431.251 77.9227H442.965L406.468 0.197323H399.147ZM385.065 53.3653L402.863 14.8413L420.211 53.3653H385.065Z" stroke="#A7A5A6" stroke-width="0.288" stroke-miterlimit="22.9256"/>
<path d="M345.798 10.1093V0.197323H272.129V10.1093H303.783V77.9227H314.145V10.1093H345.798" fill="white"/>
<path d="M345.798 10.1093V0.197323H272.129V10.1093H303.783V77.9227H314.145V10.1093H345.798Z" stroke="#A7A5A6" stroke-width="0.288" stroke-miterlimit="22.9256"/>
<path d="M261.784 77.9227V68.0093H212.782V0.197323H202.418V77.9227H261.784" fill="white"/>
<path d="M261.784 77.9227V68.0093H212.782V0.197323H202.418V77.9227H261.784Z" stroke="#A7A5A6" stroke-width="0.288" stroke-miterlimit="22.9256"/>
<path d="M163.717 77.9227V68.0093H114.715V43.6787H162.477V33.7653H114.715V10.1093H163.604V0.197323H104.353V77.9227H163.717" fill="white"/>
<path d="M163.717 77.9227V68.0093H114.715V43.6787H162.477V33.7653H114.715V10.1093H163.604V0.197323H104.353V77.9227H163.717Z" stroke="#A7A5A6" stroke-width="0.288" stroke-miterlimit="22.9256"/>
<path d="M35.2947 0.197339L1.38843 77.924H73.7072L40.2509 0.197339H35.2947ZM11.4139 71.728L35.2769 16.8627L57.8509 71.728H11.4139Z" fill="white"/>
<path d="M35.2947 0.197339L1.38843 77.924H73.7072L40.2509 0.197339H35.2947ZM11.4139 71.728L35.2769 16.8627L57.8509 71.728H11.4139Z" stroke="#A7A5A6" stroke-width="0.288" stroke-miterlimit="22.9256"/>
</g>
<defs>
<clipPath id="clip0">
<rect width="443" height="78" fill="white"/>
</clipPath>
</defs>
</svg>
